<?xml version="1.0" encoding="UTF-8" standalone="no"?>
<svg
   width="100"
   height="35"
   viewBox="0 0 167 53"
   fill="none"
   version="1.1"
   id="svg16"
   sodipodi:docname="logo.svg"
   xml:space="preserve"
   inkscape:version="1.2 (dc2aedaf03, 2022-05-15)"
   xmlns:inkscape="http://www.inkscape.org/namespaces/inkscape"
   xmlns:sodipodi="http://sodipodi.sourceforge.net/DTD/sodipodi-0.dtd"
   xmlns="http://www.w3.org/2000/svg"
   xmlns:svg="http://www.w3.org/2000/svg"><defs
     id="defs20" /><sodipodi:namedview
     id="namedview18"
     pagecolor="#ffffff"
     bordercolor="#000000"
     borderopacity="0.25"
     inkscape:showpageshadow="2"
     inkscape:pageopacity="0.0"
     inkscape:pagecheckerboard="0"
     inkscape:deskcolor="#d1d1d1"
     showgrid="false"
     inkscape:zoom="8.5559921"
     inkscape:cx="-17.005626"
     inkscape:cy="24.076694"
     inkscape:window-width="3440"
     inkscape:window-height="1369"
     inkscape:window-x="-8"
     inkscape:window-y="-8"
     inkscape:window-maximized="1"
     inkscape:current-layer="g580" /><path
     d="M33.3076 24.6882L15.0099 4.74774L17.61 20.3668L12.9531 24.882L31.9105 43.6985L30.203 28.0794L33.3076 24.6882Z"
     fill="white"
     id="path14" /><g
     inkscape:groupmode="layer"
     id="layer1"
     inkscape:label="Layer 1"><g
       id="g580"
       style="fill:#edf0d3;fill-opacity:1;stroke:#7c5beb;stroke-opacity:1"
       transform="matrix(1.0647172,0,0,1.0647172,83.060478,-19.387704)"><circle
         style="fill:#edf0d3;fill-opacity:1;stroke:#000000;stroke-width:0.631181;stroke-linecap:round;stroke-linejoin:round;stroke-opacity:1;paint-order:markers fill stroke"
         id="path474"
         cx="-30.777689"
         cy="43.510536"
         r="24.704958" /><ellipse
         style="fill:#b4b19d;fill-opacity:1;stroke:#000000;stroke-width:0.631181;stroke-linecap:round;stroke-linejoin:round;stroke-opacity:1;paint-order:markers fill stroke"
         id="path476"
         cx="-43.233669"
         cy="15.098573"
         rx="1.9322313"
         ry="1.0351239"
         transform="rotate(-8.4205399)" /><g
         id="g6377"
         transform="translate(20.104043,56.408421)"><path
           style="fill:#b4b19d;fill-opacity:1;stroke:#000000;stroke-width:0.631181;stroke-linecap:round;stroke-linejoin:round;stroke-opacity:1;paint-order:markers fill stroke"
           d="M -51.723985,-3.5057391 -10.44239,-13.655351 c 0,0 3.7164933,21.6585909 -15.322009,25.471622 -20.075748,4.020771 -25.959586,-15.3220101 -25.959586,-15.3220101 z"
           id="path5074"
           sodipodi:nodetypes="ccsc" /><path
           style="fill:#a1c28d;fill-opacity:1;stroke:#000000;stroke-width:0.529018;stroke-linecap:round;stroke-linejoin:round;stroke-opacity:1;paint-order:markers fill stroke"
           d="m -48.359598,-4.4388839 34.599761,-8.5067971 c 0,0 3.114942,18.1529344 -12.841991,21.3487891 -16.82629,3.3699689 -21.75777,-12.841992 -21.75777,-12.841992 z"
           id="path5074-8"
           sodipodi:nodetypes="ccsc" /><path
           style="fill:#edf0d3;fill-opacity:1;stroke:#000000;stroke-width:0.228176;stroke-linecap:round;stroke-linejoin:round;stroke-opacity:1;paint-order:markers fill stroke"
           d="m -41.014832,-3.8547983 c 0,0 -2.49456,2.7077886 -0.586065,3.13230833 1.908495,0.4245209 0.586065,-3.13230833 0.586065,-3.13230833 z"
           id="path6205"
           sodipodi:nodetypes="czc" /><path
           style="fill:#edf0d3;fill-opacity:1;stroke:#000000;stroke-width:0.256747;stroke-linecap:round;stroke-linejoin:round;stroke-opacity:1;paint-order:markers fill stroke"
           d="m -19.191874,-10.103423 c 0,0 1.432689,3.8870791 2.836611,2.1933328 1.403924,-1.693745 -2.836611,-2.1933328 -2.836611,-2.1933328 z"
           id="path6205-8"
           sodipodi:nodetypes="czc" /><path
           style="fill:#edf0d3;fill-opacity:1;stroke:#000000;stroke-width:0.224459;stroke-linecap:round;stroke-linejoin:round;stroke-opacity:1;paint-order:markers fill stroke"
           d="m -19.312369,-5.1963288 c 0,0 0.529642,3.5482437 2.053738,2.3820084 1.524099,-1.1662336 -2.053738,-2.3820084 -2.053738,-2.3820084 z"
           id="path6205-8-4"
           sodipodi:nodetypes="czc" /><path
           style="fill:#edf0d3;fill-opacity:1;stroke:#000000;stroke-width:0.224459;stroke-linecap:round;stroke-linejoin:round;stroke-opacity:1;paint-order:markers fill stroke"
           d="m -36.153639,-4.6167953 c 0,0 0.529642,3.5482437 2.053738,2.3820084 1.524099,-1.1662336 -2.053738,-2.3820084 -2.053738,-2.3820084 z"
           id="path6205-8-4-1"
           sodipodi:nodetypes="czc" /><path
           style="fill:#edf0d3;fill-opacity:1;stroke:#000000;stroke-width:0.224459;stroke-linecap:round;stroke-linejoin:round;stroke-opacity:1;paint-order:markers fill stroke"
           d="m -31.850011,-0.93797462 c 0,0 -1.718429,3.14921472 0.20065,3.13871682 1.91908,-0.010495 -0.20065,-3.13871682 -0.20065,-3.13871682 z"
           id="path6205-8-4-7"
           sodipodi:nodetypes="czc" /><path
           style="fill:#edf0d3;fill-opacity:1;stroke:#000000;stroke-width:0.224459;stroke-linecap:round;stroke-linejoin:round;stroke-opacity:1;paint-order:markers fill stroke"
           d="m -29.048449,-6.0534696 c 0,0 -0.605335,3.5361169 1.206812,2.9043774 1.81215,-0.6317371 -1.206812,-2.9043774 -1.206812,-2.9043774 z"
           id="path6205-8-4-5"
           sodipodi:nodetypes="czc" /><path
           style="fill:#edf0d3;fill-opacity:1;stroke:#000000;stroke-width:0.224459;stroke-linecap:round;stroke-linejoin:round;stroke-opacity:1;paint-order:markers fill stroke"
           d="m -24.705586,-3.2232894 c 0,0 -0.605335,3.53611699 1.206812,2.90437741 1.81215,-0.63173707 -1.206812,-2.90437741 -1.206812,-2.90437741 z"
           id="path6205-8-4-0"
           sodipodi:nodetypes="czc" /><path
           style="fill:#edf0d3;fill-opacity:1;stroke:#000000;stroke-width:0.224459;stroke-linecap:round;stroke-linejoin:round;stroke-opacity:1;paint-order:markers fill stroke"
           d="m -37.821907,-1.849338 c 0,0 -1.507593,3.2554136 0.40664,3.1187253 1.914235,-0.1366852 -0.40664,-3.1187253 -0.40664,-3.1187253 z"
           id="path6205-8-4-52"
           sodipodi:nodetypes="czc" /><path
           style="fill:#edf0d3;fill-opacity:1;stroke:#000000;stroke-width:0.186784;stroke-linecap:round;stroke-linejoin:round;stroke-opacity:1;paint-order:markers fill stroke"
           d="m -23.583468,-7.4811462 c 0,0 0.334818,2.9668326 1.634997,2.0255271 1.30018,-0.9413042 -1.634997,-2.0255271 -1.634997,-2.0255271 z"
           id="path6205-8-3"
           sodipodi:nodetypes="czc" /></g></g><text
       xml:space="preserve"
       style="font-style:normal;font-variant:normal;font-weight:300;font-stretch:normal;font-size:37.4714px;font-family:'Segoe UI';-inkscape-font-specification:'Segoe UI Light';text-align:center;letter-spacing:-1.75647px;text-anchor:middle;fill:#000000;stroke:none;stroke-width:0.663863;stroke-linecap:round;stroke-linejoin:round;paint-order:markers fill stroke"
       x="82.438789"
       y="35.968494"
       id="text358"><tspan
         sodipodi:role="line"
         id="tspan356"
         style="font-style:normal;font-variant:normal;font-weight:bold;font-stretch:normal;font-size:37.4714px;font-family:'Segoe UI';-inkscape-font-specification:'Segoe UI Bold';stroke:none;stroke-width:0.663863"
         x="81.560555"
         y="35.968494">honeydew</tspan></text></g></svg>
